<?xml version="1.0" standalone="no"?>
<!DOCTYPE svg PUBLIC "-//W3C//DTD SVG 20010904//EN"
 "http://www.w3.org/TR/2001/REC-SVG-20010904/DTD/svg10.dtd">
<svg version="1.0" xmlns="http://www.w3.org/2000/svg"
 width="700.000000pt" height="700.000000pt" viewBox="0 0 700.000000 700.000000"
 preserveAspectRatio="xMidYMid meet">
<metadata>
Created by potrace 1.11, written by Peter Selinger 2001-2013
</metadata>
<g transform="translate(0.000000,700.000000) scale(0.100000,-0.100000)"
fill="#000000" stroke="none">
<path d="M3300 6994 c-283 -24 -435 -48 -647 -100 -476 -116 -942 -346 -1338
-661 -141 -112 -436 -407 -548 -548 -421 -531 -669 -1137 -749 -1830 -16 -142
-16 -568 0 -710 80 -693 328 -1299 749 -1830 112 -141 407 -436 548 -548 531
-421 1137 -669 1830 -749 142 -16 568 -16 710 0 693 80 1299 328 1830 749 141
112 436 407 548 548 421 531 669 1137 749 1830 7 61 12 220 12 355 0 135 -5
295 -12 355 -80 693 -328 1299 -749 1830 -112 141 -407 436 -548 548 -526 418
-1140 670 -1815 747 -99 11 -492 21 -570 14z m585 -248 c309 -41 555 -103 816
-206 1055 -420 1832 -1373 2019 -2480 36 -217 45 -324 45 -560 0 -236 -9 -343
-45 -560 -227 -1344 -1316 -2433 -2660 -2660 -217 -36 -324 -45 -560 -45 -236
0 -343 9 -560 45 -1344 227 -2433 1316 -2660 2660 -36 217 -45 324 -45 560 0
236 9 343 45 560 227 1344 1316 2433 2660 2660 100 16 178 26 355 44 82 8 484
-4 590 -18z"/>
<path d="M3200 6369 c-546 -61 -1043 -262 -1480 -599 -122 -94 -396 -368 -490
-490 -283 -367 -475 -786 -560 -1220 -68 -349 -68 -771 0 -1120 85 -434 277
-853 560 -1220 94 -122 368 -396 490 -490 433 -334 919 -533 1450 -594 267
-31 624 -17 890 34 434 85 853 277 1220 560 122 94 396 368 490 490 334 433
533 919 594 1450 31 267 17 624 -34 890 -85 434 -277 853 -560 1220 -94 122
-368 396 -490 490 -435 335 -918 533 -1455 595 -140 16 -495 19 -625 4z m190
-1399 c0 -649 -3 -1180 -8 -1180 -4 0 -382 375 -840 833 l-833 833 43 40 c122
112 333 258 508 351 264 142 595 247 885 282 50 6 101 13 115 15 14 2 49 4 78
5 l52 1 0 -1180z m503 1154 c377 -56 722 -186 1042 -392 106 -68 242 -171 313
-236 l43 -40 -833 -833 c-458 -458 -836 -833 -840 -833 -5 0 -8 532 -8 1181
l0 1182 93 -7 c50 -4 136 -14 190 -22z m-683 -2506 c0 -5 -532 -8 -1181 -8
l-1182 0 7 93 c27 359 133 727 299 1037 93 175 239 386 351 508 l40 43 833
-833 c458 -458 833 -836 833 -840z m2363 1537 c334 -416 533 -922 573 -1452
l7 -93 -1182 0 c-649 0 -1181 3 -1181 7 0 5 374 382 832 840 806 806 833 832
852 815 10 -9 55 -62 99 -117z m-2363 -1773 c0 -4 -375 -382 -833 -840 l-833
-833 -40 43 c-112 122 -258 333 -351 508 -166 310 -272 678 -299 1038 l-7 92
1182 0 c649 0 1181 -3 1181 -8z m2936 -84 c-27 -360 -133 -728 -299 -1038 -93
-175 -239 -386 -351 -508 l-40 -43 -833 833 c-458 458 -833 836 -833 840 0 5
532 8 1181 8 l1182 0 -7 -92z m-2756 -1269 l0 -1182 -92 7 c-360 27 -728 133
-1038 299 -175 93 -386 239 -508 351 l-43 40 833 833 c458 458 836 833 840
833 5 0 8 -532 8 -1181z m1068 348 l833 -833 -43 -40 c-122 -112 -333 -258
-508 -351 -310 -166 -678 -272 -1037 -299 l-93 -7 0 1182 c0 649 3 1181 8
1181 4 0 382 -375 840 -833z"/>
<path d="M2580 5500 l0 -110 150 0 150 0 0 110 0 110 -150 0 -150 0 0 -110z"/>
<path d="M2890 4885 l0 -115 150 0 150 0 0 115 0 115 -150 0 -150 0 0 -115z"/>
<path d="M4120 5500 l0 -110 150 0 150 0 0 110 0 110 -150 0 -150 0 0 -110z"/>
<path d="M3810 4885 l0 -115 150 0 150 0 0 115 0 115 -150 0 -150 0 0 -115z"/>
<path d="M1500 4425 l0 -115 155 0 155 0 0 115 0 115 -155 0 -155 0 0 -115z"/>
<path d="M1960 3965 l0 -115 155 0 155 0 0 115 0 115 -155 0 -155 0 0 -115z"/>
<path d="M5192 4268 l3 -113 153 -3 152 -3 0 116 0 115 -155 0 -156 0 3 -112z"/>
<path d="M4580 3965 l0 -115 150 0 150 0 0 115 0 115 -150 0 -150 0 0 -115z"/>
<path d="M1960 3035 l0 -115 155 0 155 0 0 115 0 115 -155 0 -155 0 0 -115z"/>
<path d="M1500 2575 l0 -115 155 0 155 0 0 115 0 115 -155 0 -155 0 0 -115z"/>
<path d="M4580 3035 l0 -115 150 0 150 0 0 115 0 115 -150 0 -150 0 0 -115z"/>
<path d="M5350 2575 l0 -115 150 0 150 0 0 115 0 115 -150 0 -150 0 0 -115z"/>
<path d="M2730 2115 l0 -115 155 0 155 0 0 115 0 115 -155 0 -155 0 0 -115z"/>
<path d="M2420 1500 l0 -110 155 0 155 0 0 110 0 110 -155 0 -155 0 0 -110z"/>
<path d="M3810 2265 l0 -115 150 0 150 0 0 115 0 115 -150 0 -150 0 0 -115z"/>
<path d="M4120 1500 l0 -110 150 0 150 0 0 110 0 110 -150 0 -150 0 0 -110z"/>
</g>
</svg>
