<?xml version="1.0" encoding="iso-8859-1"?>
<!-- Generator: Adobe Illustrator 19.0.0, SVG Export Plug-In . SVG Version: 6.00 Build 0)  -->
<svg version="1.1" id="Layer_1" xmlns="http://www.w3.org/2000/svg" xmlns:xlink="http://www.w3.org/1999/xlink" x="0px" y="0px"
	 viewBox="0 0 511.999 511.999" style="enable-background:new 0 0 511.999 511.999;" xml:space="preserve">
<path style="fill:#3E3E42;" d="M127.519,280.998c-15.701,0-30.428-4.904-42.714-13.24v202.268c0,23.145,18.829,41.973,41.973,41.973
	c23.143,0,41.973-18.829,41.973-41.973V268.714C156.77,276.457,142.599,280.998,127.519,280.998z"/>
<path style="fill:#2D2E30;" d="M127.519,280.998c-0.248,0-0.493-0.017-0.74-0.019v231.02l0,0c23.143,0,41.973-18.829,41.973-41.973
	V268.714C156.77,276.457,142.599,280.998,127.519,280.998z"/>
<path style="fill:#57565C;" d="M126.78,67.745c-63.894,0-115.876,51.982-115.876,115.876S62.886,299.497,126.78,299.497
	s115.876-51.982,115.876-115.876S190.673,67.745,126.78,67.745z M126.78,267.109c-46.036,0-83.488-37.452-83.488-83.488
	s37.452-83.488,83.488-83.488s83.488,37.452,83.488,83.488S172.815,267.109,126.78,267.109z"/>
<path style="fill:#FACE17;" d="M433.847,0c-37.081,0-67.249,30.166-67.249,67.248s30.167,67.249,67.249,67.249
	s67.248-30.167,67.248-67.249S470.927,0,433.847,0z"/>
<path style="fill:#9F56CC;" d="M382.793,246.826c-37.081,0-67.249,30.166-67.249,67.248c0,37.081,30.167,67.249,67.249,67.249
	s67.249-30.167,67.249-67.249C450.041,276.993,419.873,246.826,382.793,246.826z"/>
<path style="fill:#3E3E42;" d="M126.78,67.745v32.387c46.036,0,83.488,37.452,83.488,83.488s-37.452,83.488-83.488,83.488v32.387
	c63.894,0,115.876-51.982,115.876-115.876S190.673,67.745,126.78,67.745z"/>
<path style="fill:#EE8FBD;" d="M262.905,47.382c-45.929,0-83.296,37.367-83.296,83.295s37.367,83.295,83.296,83.295
	s83.295-37.367,83.295-83.295S308.835,47.382,262.905,47.382z"/>
<path style="fill:#EE7EB4;" d="M262.905,47.382L262.905,47.382v166.591l0,0c45.929,0,83.295-37.367,83.295-83.295
	S308.835,47.382,262.905,47.382z"/>
<path style="fill:#EEC3D8;" d="M225.387,148.346c-9.758,0-17.669-7.91-17.669-17.669c0-30.429,24.756-55.186,55.186-55.186
	c9.758,0,17.669,7.91,17.669,17.669s-7.91,17.669-17.669,17.669c-10.945,0-19.849,8.904-19.849,19.849
	C243.056,140.436,235.145,148.346,225.387,148.346z"/>
<path style="fill:#E0B915;" d="M433.847,0L433.847,0v134.496l0,0c37.081,0,67.248-30.167,67.248-67.249S470.927,0,433.847,0z"/>
<path style="fill:#FFE98C;" d="M405.302,84.916c-9.758,0-17.669-7.91-17.669-17.669c0-25.482,20.731-46.212,46.214-46.212
	c9.758,0,17.669,7.91,17.669,17.669s-7.91,17.669-17.669,17.669c-5.997,0-10.877,4.88-10.877,10.876
	C422.97,77.006,415.06,84.916,405.302,84.916z"/>
<path style="fill:#8E3AC2;" d="M382.793,246.826v134.496c37.081,0,67.249-30.167,67.249-67.249
	C450.041,276.993,419.873,246.826,382.793,246.826z"/>
<path style="fill:#CE94F2;" d="M354.248,331.742c-9.758,0-17.669-7.91-17.669-17.669c0-25.482,20.731-46.212,46.212-46.212
	c9.758,0,17.669,7.91,17.669,17.669c0,9.758-7.91,17.669-17.669,17.669c-5.996,0-10.876,4.88-10.876,10.876
	C371.916,323.832,364.006,331.742,354.248,331.742z"/>
<g>
</g>
<g>
</g>
<g>
</g>
<g>
</g>
<g>
</g>
<g>
</g>
<g>
</g>
<g>
</g>
<g>
</g>
<g>
</g>
<g>
</g>
<g>
</g>
<g>
</g>
<g>
</g>
<g>
</g>
</svg>
