<?xml version="1.0" encoding="iso-8859-1"?>
<!-- Generator: Adobe Illustrator 19.0.0, SVG Export Plug-In . SVG Version: 6.00 Build 0)  -->
<svg version="1.1" id="Layer_1" xmlns="http://www.w3.org/2000/svg" xmlns:xlink="http://www.w3.org/1999/xlink" x="0px" y="0px"
	 viewBox="0 0 512 512" style="enable-background:new 0 0 512 512;" xml:space="preserve">
<path style="fill:#C6C5CA;" d="M423.622,512c2.073,0,3.854-1.47,4.249-3.505c0.393-2.035-0.71-4.066-2.634-4.838l0,0l-83.282-33.413
	c-19.7-7.903-32.613-26.997-32.613-48.223v-68.763H199.693v68.763c0,21.227-12.912,40.319-32.613,48.223L83.8,503.656
	c-1.925,0.772-3.031,2.802-2.637,4.838S83.34,512,85.414,512H423.622z"/>
<path style="fill:#ACACB2;" d="M309.343,413.637v-60.38H199.693v60.379c16.676,11.986,35.246,18.992,54.825,18.992
	C274.097,432.629,292.667,425.622,309.343,413.637z"/>
<path style="fill:#97C94D;" d="M432.156,202.935l-0.86-0.151l0.86-0.151c16.556-2.902,27.61-18.6,24.692-35.062
	c-2.919-16.461-18.704-27.447-35.264-24.552l-0.86,0.151l0.757-0.435c14.559-8.357,19.547-26.869,11.141-41.344
	c-8.407-14.479-27.023-19.438-41.581-11.078l-0.759,0.436l0.563-0.668c10.806-12.804,9.127-31.895-3.751-42.64
	c-12.879-10.742-32.079-9.077-42.885,3.731l-0.562,0.666l0.299-0.817c5.749-15.708-2.396-33.076-18.193-38.793
	c-15.797-5.718-33.264,2.381-39.015,18.089l-0.299,0.816v-0.868C286.44,13.551,272.811,0,256,0s-30.44,13.551-30.44,30.267v0.868
	l-0.299-0.816c-5.749-15.707-23.219-23.799-39.015-18.089c-15.797,5.718-23.942,23.086-18.193,38.793l0.299,0.817l-0.562-0.666
	c-10.805-12.806-30.005-14.474-42.885-3.731c-12.878,10.745-14.558,29.836-3.751,42.64l0.563,0.668l-0.759-0.436
	c-14.56-8.357-33.176-3.399-41.581,11.078c-8.406,14.475-3.418,32.987,11.141,41.344l0.757,0.435l-0.86-0.151
	c-16.56-2.9-32.344,8.088-35.264,24.552c-2.919,16.461,8.136,32.159,24.692,35.062l0.86,0.151l-0.86,0.151
	c-16.556,2.902-27.61,18.6-24.692,35.062c2.604,14.685,15.447,25.016,29.942,25.016c1.755,0,3.533-0.151,5.322-0.465l0.86-0.151
	l-0.757,0.435c-14.559,8.357-19.547,26.869-11.141,41.344c5.638,9.711,15.869,15.138,26.39,15.138c5.164,0,10.399-1.308,15.191-4.06
	l0.759-0.436l-0.563,0.668c-10.806,12.804-9.127,31.895,3.751,42.64c5.704,4.757,12.646,7.081,19.551,7.081
	c8.686,0,17.313-3.677,23.333-10.812l0.562-0.666l-0.298,0.815c-5.749,15.708,2.396,33.076,18.193,38.793
	c3.437,1.245,6.951,1.834,10.409,1.834c12.432,0,24.107-7.633,28.606-19.922l0.299-0.816v0.868c0,16.716,13.628,30.267,30.44,30.267
	s30.44-13.551,30.44-30.267v-0.868l0.299,0.816c4.499,12.29,16.172,19.922,28.606,19.922c3.458,0,6.972-0.591,10.409-1.834
	c15.797-5.718,23.942-23.086,18.193-38.793l-0.299-0.817l0.562,0.666c6.021,7.135,14.646,10.812,23.333,10.812
	c6.904,0,13.848-2.323,19.551-7.081c12.878-10.745,14.558-29.836,3.751-42.64l-0.563-0.668l0.759,0.436
	c4.794,2.752,10.026,4.06,15.191,4.06c10.52,0,20.752-5.428,26.39-15.138c8.406-14.475,3.418-32.987-11.141-41.344l-0.757-0.435
	l0.86,0.151c1.788,0.313,3.567,0.465,5.322,0.465c14.494,0,27.338-10.332,29.942-25.016
	C459.766,221.536,448.712,205.838,432.156,202.935z"/>
<path style="fill:#FFFFFF;" d="M176.54,153.92c-26.53,0-48.839,19.987-51.662,46.366c-0.756,7.065-1.147,14.274-1.147,21.596
	c0,89.743,58.555,184.95,130.787,184.95c72.231,0,130.787-95.209,130.787-184.95c0-7.322-0.39-14.531-1.147-21.596
	c-2.829-26.431-25.079-46.366-51.662-46.366H176.54z"/>
<circle style="fill:#DE3205;" cx="254.296" cy="278.703" r="40.234"/>
<circle style="fill:#FFFFFF;" cx="238.602" cy="265.832" r="12.867"/>
<path style="fill:#57565C;" d="M254.518,367.988c-18.033,0-36.066-6.864-49.794-20.593c-6.511-6.51-6.511-17.066,0-23.577
	c6.51-6.51,17.066-6.51,23.577,0c14.458,14.456,37.979,14.459,52.436,0c6.51-6.51,17.066-6.51,23.577,0s6.511,17.066,0,23.577
	C290.585,361.125,272.551,367.988,254.518,367.988z"/>
<g>
	<path style="fill:#3E3E42;" d="M207.101,212.465c-0.597-8.665-7.797-15.513-16.613-15.513s-16.016,6.849-16.613,15.513
		c-8.665,0.598-15.512,7.797-15.512,16.613s6.849,16.016,15.512,16.613c0.597,8.665,7.797,15.513,16.613,15.513
		s16.016-6.849,16.613-15.513c8.665-0.597,15.513-7.797,15.513-16.613S215.766,213.062,207.101,212.465z"/>
	<path style="fill:#3E3E42;" d="M345.88,229.077c0-8.817-6.849-16.016-15.513-16.613c-0.597-8.665-7.797-15.513-16.613-15.513
		s-16.016,6.849-16.613,15.513c-8.665,0.597-15.513,7.797-15.513,16.613s6.849,16.016,15.513,16.613
		c0.597,8.665,7.797,15.513,16.613,15.513s16.016-6.849,16.613-15.513C339.031,245.093,345.88,237.894,345.88,229.077z"/>
</g>
<g>
</g>
<g>
</g>
<g>
</g>
<g>
</g>
<g>
</g>
<g>
</g>
<g>
</g>
<g>
</g>
<g>
</g>
<g>
</g>
<g>
</g>
<g>
</g>
<g>
</g>
<g>
</g>
<g>
</g>
</svg>
