<?xml version="1.0" encoding="iso-8859-1"?>
<!-- Generator: Adobe Illustrator 19.0.0, SVG Export Plug-In . SVG Version: 6.00 Build 0)  -->
<svg version="1.1" id="Layer_1" xmlns="http://www.w3.org/2000/svg" xmlns:xlink="http://www.w3.org/1999/xlink" x="0px" y="0px"
	 viewBox="0 0 512 512" style="enable-background:new 0 0 512 512;" xml:space="preserve">
<path style="fill:#2D2E30;" d="M258.742,0c-9.268,0-16.781,7.513-16.781,16.781v427.415c0,9.268,7.513,16.781,16.781,16.781
	s16.781-7.513,16.781-16.781V16.781C275.523,7.513,268.01,0,258.742,0z"/>
<polygon style="fill:#FACE17;" points="451.5,420.819 464.896,445.313 489.389,458.708 464.896,472.104 451.5,496.597 
	438.105,472.104 413.611,458.708 438.105,445.313 "/>
<polygon style="fill:#DEB714;" points="95.289,85.216 87.442,112.008 95.289,138.8 68.498,130.953 41.705,138.8 49.553,112.008 
	41.705,85.216 68.498,93.064 "/>
<g>
	<polygon style="fill:#FACE17;" points="47.517,382.93 58.353,402.742 78.165,413.578 58.353,424.412 47.517,444.225 
		36.682,424.412 16.869,413.578 36.682,402.742 	"/>
	<polygon style="fill:#FACE17;" points="464.483,81.361 475.319,101.172 495.131,112.008 475.319,122.843 464.483,142.656 
		453.648,122.843 433.835,112.008 453.648,101.172 	"/>
</g>
<polygon style="fill:#DEB714;" points="138.951,458.354 131.095,485.177 138.951,512 112.128,504.144 85.304,512 93.161,485.177 
	85.304,458.354 112.128,466.21 "/>
<circle style="fill:#8A8A91;" cx="258.74" cy="278.105" r="196.74"/>
<path style="fill:#2D2E30;" d="M260.231,81.38v393.445c107.97-0.802,195.252-88.563,195.252-196.722
	C455.483,169.943,368.201,82.182,260.231,81.38z"/>
<ellipse style="fill:#57565C;" cx="258.74" cy="278.105" rx="103.057" ry="196.74"/>
<path style="fill:#3E3E42;" d="M258.742,81.361c-0.28,0-0.558,0.016-0.838,0.02v393.443c0.28,0.004,0.557,0.02,0.838,0.02
	c56.918,0,103.057-88.084,103.057-196.741C361.799,169.445,315.658,81.361,258.742,81.361z"/>
<path style="fill:#ACACB2;" d="M258.742,81.361c-108.658,0-196.741,88.084-196.741,196.742h393.483
	C455.483,169.445,367.399,81.361,258.742,81.361z"/>
<path style="fill:#3E3E42;" d="M257.904,278.102h197.579c0-108.658-88.084-196.742-196.741-196.742L257.904,278.102z"/>
<path style="fill:#797882;" d="M361.799,278.102C361.554,169.844,315.507,81.36,258.742,81.36S155.93,169.843,155.685,278.102
	H361.799z"/>
<path style="fill:#57565C;" d="M257.904,278.102h103.895C361.554,169.844,315.507,81.36,258.742,81.36
	c-0.28,0-0.558,0.016-0.838,0.02L257.904,278.102L257.904,278.102z"/>
<path style="fill:#C6C5CA;" d="M429.156,179.732c-34.018-58.805-97.593-98.371-170.415-98.371s-136.397,39.566-170.415,98.371
	H429.156z"/>
<path style="fill:#797882;" d="M257.904,179.732h171.252c-34.018-58.805-97.593-98.371-170.415-98.371
	c-0.281,0-0.557,0.013-0.838,0.015v98.356H257.904z"/>
<path style="fill:#ACACB2;" d="M347.873,179.298c-17.85-58.565-51.08-97.938-89.131-97.938s-71.281,39.373-89.131,97.938H347.873z"
	/>
<path style="fill:#8A8A91;" d="M260.231,179.298h87.642c-17.617-57.798-50.216-96.875-87.642-97.89V179.298z"/>
<path style="fill:#57565C;" d="M86.176,372.649c33.441,60.906,98.179,102.194,172.566,102.194s139.125-41.289,172.566-102.194
	H86.176z"/>
<path style="fill:#1D1D1F;" d="M258.742,372.649v102.194c74.388,0,139.125-41.289,172.566-102.194H258.742z"/>
<path style="fill:#3E3E42;" d="M168.348,372.649c17.517,60.906,51.428,102.194,90.395,102.194s72.877-41.289,90.394-102.194H168.348
	z"/>
<path style="fill:#2D2E30;" d="M258.742,372.649v102.194c38.966,0,72.877-41.289,90.394-102.194H258.742z"/>
<g>
</g>
<g>
</g>
<g>
</g>
<g>
</g>
<g>
</g>
<g>
</g>
<g>
</g>
<g>
</g>
<g>
</g>
<g>
</g>
<g>
</g>
<g>
</g>
<g>
</g>
<g>
</g>
<g>
</g>
</svg>
