<?xml version="1.0" encoding="iso-8859-1"?>
<!-- Generator: Adobe Illustrator 19.0.0, SVG Export Plug-In . SVG Version: 6.00 Build 0)  -->
<svg version="1.1" id="Layer_1" xmlns="http://www.w3.org/2000/svg" xmlns:xlink="http://www.w3.org/1999/xlink" x="0px" y="0px"
	 viewBox="0 0 512 512" style="enable-background:new 0 0 512 512;" xml:space="preserve">
<path style="fill:#C3A534;" d="M256,0c-9.314,0-16.865,7.551-16.865,16.865v122.198c0,9.314,7.551,16.865,16.865,16.865
	c9.314,0,16.865-7.551,16.865-16.865V16.865C272.865,7.551,265.314,0,256,0z"/>
<path style="fill:#D4B331;" d="M300.128,64.086l-71.391-41.218c-8.067-4.659-18.381-1.894-23.037,6.172
	c-4.658,8.066-1.894,18.38,6.172,23.037l71.391,41.218c2.656,1.534,5.555,2.262,8.417,2.262c5.828,0,11.497-3.024,14.62-8.435
	C310.958,79.058,308.195,68.743,300.128,64.086z"/>
<path style="fill:#F6D433;" d="M306.301,29.042c-4.658-8.068-14.972-10.829-23.037-6.172l-71.391,41.218
	c-8.067,4.657-10.83,14.971-6.172,23.037c3.123,5.411,8.792,8.435,14.62,8.435c2.861,0,5.761-0.729,8.417-2.262l71.391-41.218
	C308.195,47.422,310.958,37.108,306.301,29.042z"/>
<path style="fill:#2F6EAF;" d="M442.372,488.05L271.305,118.518c-2.76-5.963-8.734-9.78-15.304-9.78
	c-6.57,0-12.544,3.817-15.304,9.78L69.629,488.05c-2.417,5.222-2.005,11.316,1.094,16.165c3.099,4.849,8.456,7.784,14.211,7.784
	H427.07c5.754,0,11.113-2.934,14.211-7.784C444.379,499.366,444.79,493.272,442.372,488.05z"/>
<path style="fill:#0056AF;" d="M442.372,488.05L271.305,118.518c-2.62-5.66-8.134-9.379-14.308-9.744V512h170.071
	c5.754,0,11.113-2.934,14.211-7.784S444.79,493.272,442.372,488.05z"/>
<polygon style="fill:#E9C013;" points="127.614,362.793 303.133,187.273 288.039,154.668 168.728,273.979 "/>
<path style="fill:#E78600;" d="M326.414,237.563L68.092,495.885c0.13,2.915,1.008,5.794,2.63,8.331
	C73.82,509.066,79.177,512,84.933,512h14.745l241.83-241.831L326.414,237.563z"/>
<path style="fill:#E9C013;" d="M364.668,320.198c-7.335,7.271-14.65,14.52-21.909,21.714
	C286.74,397.422,229.131,454.524,172.577,512h47.392c48.869-49.342,98.292-98.328,146.532-146.129
	c4.395-4.356,8.813-8.734,13.238-13.118L364.668,320.198z"/>
<path style="fill:#E78600;" d="M403.185,403.399c-4.252,4.24-8.505,8.479-12.733,12.693c-31.533,31.433-63.871,63.667-96.053,95.908
	h47.686c24.239-24.23,48.437-48.354,72.178-72.02c1.33-1.326,2.674-2.666,4.006-3.994L403.185,403.399z"/>
<path style="fill:#004A96;" d="M471.068,478.271H40.932c-9.314,0-16.865,7.551-16.865,16.865S31.618,512,40.932,512h430.136
	c9.314,0,16.865-7.551,16.865-16.865S480.383,478.271,471.068,478.271z"/>
<g>
</g>
<g>
</g>
<g>
</g>
<g>
</g>
<g>
</g>
<g>
</g>
<g>
</g>
<g>
</g>
<g>
</g>
<g>
</g>
<g>
</g>
<g>
</g>
<g>
</g>
<g>
</g>
<g>
</g>
</svg>
