<?xml version="1.0" encoding="iso-8859-1"?>
<!-- Generator: Adobe Illustrator 19.0.0, SVG Export Plug-In . SVG Version: 6.00 Build 0)  -->
<svg version="1.1" id="Layer_1" xmlns="http://www.w3.org/2000/svg" xmlns:xlink="http://www.w3.org/1999/xlink" x="0px" y="0px"
	 viewBox="0 0 512 512" style="enable-background:new 0 0 512 512;" xml:space="preserve">
<path style="fill:#C27526;" d="M498.045,233.916c6.814-4.043,11.132-11.244,11.491-19.159c0.358-7.914-3.293-15.477-9.713-20.119
	L268.146,27.133c-8.271-5.981-19.454-5.942-27.683,0.093L12.049,194.731c-6.366,4.668-9.965,12.22-9.58,20.105
	c0.383,7.885,4.698,15.051,11.487,19.08l230.045,136.505c3.698,2.195,7.849,3.292,11.999,3.292s8.301-1.097,11.999-3.292
	L498.045,233.916z"/>
<path style="fill:#7E4F1F;" d="M498.045,233.916c6.814-4.043,11.132-11.244,11.491-19.159c0.358-7.914-3.293-15.477-9.713-20.119
	L268.146,27.133c-3.649-2.639-7.866-4.102-12.146-4.398v350.978c4.151,0,8.301-1.097,11.999-3.292L498.045,233.916z"/>
<path style="fill:#EBEAED;" d="M397.344,21.144C397.344,9.466,387.878,0,376.2,0h-243.76c-11.677,0-21.144,9.466-21.144,21.144
	v341.09h286.048V21.144z"/>
<g>
	<path style="fill:#D9D8DB;" d="M397.344,21.144C397.344,9.466,387.878,0,376.2,0H254.32v362.234h143.024V21.144z"/>
	<polygon style="fill:#D9D8DB;" points="397.344,207.606 256,291.477 111.297,205.612 111.297,362.234 397.344,362.234 	"/>
</g>
<polygon style="fill:#ACACB2;" points="256,291.477 256,362.234 397.344,362.234 397.344,207.606 "/>
<path style="fill:#F8A734;" d="M509.62,214.15c0-6.036-3.239-11.608-8.485-14.596c-5.246-2.987-11.69-2.93-16.882,0.151L256,335.147
	L27.748,199.706c-5.192-3.08-11.637-3.14-16.882-0.151c-5.246,2.986-8.485,8.559-8.485,14.596v281.054
	C2.38,504.48,9.9,512,19.176,512h473.648c9.276,0,16.796-7.52,16.796-16.796V214.15z"/>
<path style="fill:#F8980E;" d="M509.62,214.15c0-6.036-3.239-11.608-8.485-14.596c-5.246-2.987-11.69-2.93-16.882,0.151L256,335.147
	V512h236.824c9.276,0,16.796-7.52,16.796-16.796V214.15z"/>
<path style="fill:#DF871E;" d="M15.722,499.078l240.279-163.931V512H19.709C12.748,512,9.97,503.002,15.722,499.078z"/>
<path style="fill:#C27526;" d="M496.279,499.078L256,335.147V512h236.291C499.254,512,502.03,503.002,496.279,499.078z"/>
<path style="fill:#57565C;" d="M333.235,55.176c-1.505-1.085-3.439-1.381-5.199-0.795l-98.719,32.856v-0.096l-4.266,1.516
	l-3.326,1.107c-0.319,0.106-0.621,0.243-0.91,0.397l-9.715,3.452c-2.301,0.817-3.838,2.995-3.838,5.437v86.207
	c-4.126-1.122-8.65-1.745-13.429-1.745c-19.898,0-35.484,10.644-35.484,24.233s15.587,24.233,35.484,24.233
	s35.484-10.644,35.484-24.233v-6.59v-70.987l84.258-28.043v47.747c-4.126-1.122-8.65-1.745-13.429-1.745
	c-19.898,0-35.484,10.644-35.484,24.233c0,13.589,15.587,24.233,35.484,24.233s35.484-10.644,35.484-24.233v-0.037V90.629V76.784
	V59.858C335.63,58.003,334.739,56.261,333.235,55.176z"/>
<g>
</g>
<g>
</g>
<g>
</g>
<g>
</g>
<g>
</g>
<g>
</g>
<g>
</g>
<g>
</g>
<g>
</g>
<g>
</g>
<g>
</g>
<g>
</g>
<g>
</g>
<g>
</g>
<g>
</g>
</svg>
