<?xml version="1.0" encoding="iso-8859-1"?>
<!-- Generator: Adobe Illustrator 19.0.0, SVG Export Plug-In . SVG Version: 6.00 Build 0)  -->
<svg version="1.1" id="Layer_1" xmlns="http://www.w3.org/2000/svg" xmlns:xlink="http://www.w3.org/1999/xlink" x="0px" y="0px"
	 viewBox="0 0 511.999 511.999" style="enable-background:new 0 0 511.999 511.999;" xml:space="preserve">
<path style="fill:#C3A534;" d="M506.116,87.975c2.36-0.034,4.507,1.366,5.426,3.541c0.919,2.175,0.428,4.69-1.241,6.359
	l-56.594,56.594l-26.681-26.681l33.427-33.427c3.725-3.725,8.755-5.852,14.023-5.927L506.116,87.975z"/>
<path style="fill:#BF2717;" d="M126.364,424.024c-36.098,0-72.081-14.566-98.283-43.259
	c-39.988-43.792-36.895-111.951,6.895-151.937c35.689-32.589,91.236-30.071,123.827,5.619
	c12.987,14.223,19.659,32.653,18.787,51.893c-0.873,19.241-9.188,36.99-23.411,49.978c-11.828,10.8-27.143,16.363-43.155,15.623
	c-16.002-0.727-30.762-7.641-41.562-19.468c-9.093-9.959-13.764-22.862-13.154-36.332c0.61-13.47,6.432-25.897,16.391-34.991
	c6.788-6.199,17.317-5.722,23.517,1.069c6.199,6.788,5.721,17.317-1.069,23.517c-7,6.392-7.494,17.287-1.101,24.288
	c9.918,10.861,26.823,11.627,37.683,1.71c7.656-6.991,12.132-16.545,12.601-26.903c0.471-10.356-3.122-20.276-10.112-27.934
	c-20.211-22.132-54.66-23.694-76.792-3.486c-30.234,27.61-32.37,74.669-4.761,104.904c36.998,40.516,100.003,43.462,140.622,6.637
	l185.302-185.303c6.5-6.5,17.04-6.5,23.541,0c6.501,6.5,6.501,17.04,0,23.541l-185.58,185.582c-0.178,0.178-0.36,0.352-0.546,0.523
	C190.536,412.549,158.404,424.024,126.364,424.024z"/>
<path style="fill:#9D2217;" d="M350.196,255.124l51.933-51.933c6.501-6.5,6.501-17.04,0-23.541c-6.5-6.5-17.04-6.5-23.541,0
	l-51.933,51.933L350.196,255.124z"/>
<path style="fill:#E5BF2B;" d="M465.98,141.98c4.916,4.916,5.174,12.803,0.589,18.03l-61.033,69.578
	c-2.406,2.743-5.841,4.367-9.487,4.487c-3.647,0.119-7.18-1.277-9.76-3.857l-35.01-35.01c-2.58-2.58-3.976-6.114-3.858-9.76
	c0.119-3.647,1.743-7.081,4.487-9.487l69.578-61.033c5.227-4.584,13.114-4.327,18.03,0.589L465.98,141.98z"/>
<g>
</g>
<g>
</g>
<g>
</g>
<g>
</g>
<g>
</g>
<g>
</g>
<g>
</g>
<g>
</g>
<g>
</g>
<g>
</g>
<g>
</g>
<g>
</g>
<g>
</g>
<g>
</g>
<g>
</g>
</svg>
