<?xml version="1.0" encoding="iso-8859-1"?>
<!-- Generator: Adobe Illustrator 19.0.0, SVG Export Plug-In . SVG Version: 6.00 Build 0)  -->
<svg version="1.1" id="Layer_1" xmlns="http://www.w3.org/2000/svg" xmlns:xlink="http://www.w3.org/1999/xlink" x="0px" y="0px"
	 viewBox="0 0 512 512" style="enable-background:new 0 0 512 512;" xml:space="preserve">
<path style="fill:#0056AF;" d="M17.053,362.672C7.635,362.672,0,355.036,0,345.618V190.735c0-41.843,22.39-81.039,58.431-102.295
	l38.636-22.784c8.113-4.784,18.568-2.085,23.352,6.027c4.784,8.113,2.086,18.568-6.027,23.353L75.756,117.82
	c-25.69,15.15-41.65,43.09-41.65,72.915v154.882C34.106,355.036,26.471,362.672,17.053,362.672z"/>
<g>
	<path style="fill:#004B99;" d="M494.947,362.672c-9.418,0-17.053-7.635-17.053-17.053V190.735c0-29.825-15.96-57.766-41.65-72.916
		l-38.636-22.785c-8.113-4.785-10.811-15.24-6.027-23.353c4.784-8.112,15.239-10.808,23.352-6.027l38.636,22.785
		C489.61,109.695,512,148.893,512,190.735v154.882C512,355.036,504.366,362.672,494.947,362.672z"/>
	<path style="fill:#004B99;" d="M302.233,376.718c-9.418,0-17.053-7.635-17.053-17.053c0-16.089-13.09-29.18-29.18-29.18
		s-29.18,13.091-29.18,29.18c0,9.418-7.635,17.053-17.053,17.053s-17.053-7.635-17.053-17.053c0-34.897,28.39-63.287,63.287-63.287
		s63.287,28.39,63.287,63.287C319.286,369.082,311.651,376.718,302.233,376.718z"/>
</g>
<path style="fill:#3E3D41;" d="M226.239,407.641c0,22.682-18.388,41.07-41.07,41.07H59.26c-22.682,0-41.07-18.388-41.07-41.07
	V292.958c0-8.79,7.126-15.916,15.916-15.916h176.217c8.79,0,15.916,7.126,15.916,15.916V407.641z"/>
<path style="fill:#2E2D30;" d="M210.323,277.042H34.106c-8.79,0-15.916,7.126-15.916,15.916v32.97
	c0-8.79,7.126-15.916,15.916-15.916h176.217c8.79,0,15.916,7.126,15.916,15.916v-32.97
	C226.239,284.168,219.113,277.042,210.323,277.042z"/>
<path style="fill:#3E3D41;" d="M493.81,404.429c0,22.682-18.388,41.07-41.07,41.07h-125.91c-22.682,0-41.07-18.388-41.07-41.07
	V289.746c0-8.79,7.126-15.916,15.916-15.916h176.217c8.79,0,15.916,7.126,15.916,15.916V404.429z"/>
<g>
	<path style="fill:#2E2D30;" d="M477.894,273.83H301.677c-8.79,0-15.916,7.126-15.916,15.916v37.517
		c0-8.79,7.126-15.916,15.916-15.916h176.217c8.79,0,15.916,7.126,15.916,15.916v-37.517
		C493.81,280.956,486.684,273.83,477.894,273.83z"/>
	<path style="fill:#2E2D30;" d="M210.323,277.042h-87.538v171.669h62.384c22.682,0,41.07-18.388,41.07-41.07V292.958
		C226.239,284.168,219.113,277.042,210.323,277.042z"/>
</g>
<g>
	<path style="fill:#787878;" d="M166.843,277.042l-52.61,83.198c-5.034,7.959-2.661,18.494,5.299,23.527
		c2.829,1.788,5.982,2.642,9.098,2.642c5.654,0,11.185-2.81,14.429-7.941l64.137-101.426L166.843,277.042L166.843,277.042z"/>
	<path style="fill:#787878;" d="M95.37,277.042L18.19,399.093v8.549c0,12.747,5.807,24.136,14.92,31.669l102.611-162.268H95.37
		V277.042z"/>
</g>
<path style="fill:#2E2D30;" d="M477.894,273.83h-87.458v171.669h62.303c22.682,0,41.07-18.388,41.07-41.07V289.746
	C493.81,280.956,486.684,273.83,477.894,273.83z"/>
<g>
</g>
<g>
</g>
<g>
</g>
<g>
</g>
<g>
</g>
<g>
</g>
<g>
</g>
<g>
</g>
<g>
</g>
<g>
</g>
<g>
</g>
<g>
</g>
<g>
</g>
<g>
</g>
<g>
</g>
</svg>
